<svg id="waving-hand" xmlns="http://www.w3.org/2000/svg" width="26.067" height="26.65" viewBox="0 0 26.067 26.65">
  <g id="Group_340" data-name="Group 340" transform="translate(17.06 0)">
    <g id="Group_339" data-name="Group 339" transform="translate(0 0)">
      <path id="Path_1556" data-name="Path 1556" d="M336.941,4.03A12.59,12.59,0,0,0,334.019.1a.39.39,0,0,0-.524.579,11.807,11.807,0,0,1,2.74,3.686.39.39,0,0,0,.705-.335Z" transform="translate(-333.366 0)" fill="#fff"/>
    </g>
  </g>
  <g id="Group_342" data-name="Group 342" transform="translate(15.857 1.931)">
    <g id="Group_341" data-name="Group 341">
      <path id="Path_1557" data-name="Path 1557" d="M312.825,39.781a10.36,10.36,0,0,0-1.911-2.57.39.39,0,1,0-.547.557,9.577,9.577,0,0,1,1.766,2.376.39.39,0,1,0,.691-.363Z" transform="translate(-310.251 -37.1)" fill="#fff"/>
    </g>
  </g>
  <g id="Group_344" data-name="Group 344" transform="translate(0 12.684)">
    <g id="Group_343" data-name="Group 343" transform="translate(0)">
      <path id="Path_1558" data-name="Path 1558" d="M9.089,247.6a11.8,11.8,0,0,1-2.74-3.685.39.39,0,0,0-.705.335,12.589,12.589,0,0,0,2.922,3.93.39.39,0,1,0,.524-.579Z" transform="translate(-5.605 -243.691)" fill="#fff"/>
    </g>
  </g>
  <g id="Group_346" data-name="Group 346" transform="translate(2.196 12.088)">
    <g id="Group_345" data-name="Group 345" transform="translate(0)">
      <path id="Path_1559" data-name="Path 1559" d="M50.294,234.823a9.579,9.579,0,0,1-1.766-2.376.39.39,0,1,0-.691.363,10.363,10.363,0,0,0,1.911,2.57.39.39,0,0,0,.547-.557Z" transform="translate(-47.792 -232.239)" fill="#fff"/>
    </g>
  </g>
  <g id="Group_348" data-name="Group 348" transform="translate(14.637 3.862)">
    <g id="Group_347" data-name="Group 347">
      <path id="Path_1560" data-name="Path 1560" d="M297.89,89.694l-.7-.936a6.506,6.506,0,0,0,.259-2.672,14.843,14.843,0,0,0-.764-2.5,12.747,12.747,0,0,1,.784-5.378l.014-.042c.411-1.3.683-2.158-.626-2.788a2.342,2.342,0,0,0-3.139,1.274,14.588,14.588,0,0,0-1.4,4.187l-4.818-6.481a.39.39,0,0,0-.627.466l5.391,7.251a.391.391,0,0,0,.7-.2,13.721,13.721,0,0,1,1.431-4.851c.2-.365.946-1.51,2.117-.947.739.356.6.562.215,1.864a13.221,13.221,0,0,0-.818,5.772c.179,1.044.6,1.1.758,2.465a5.469,5.469,0,0,1-.059,1.657,3.265,3.265,0,0,1-.707,1.354.39.39,0,0,0,.6.5c.074-.089.142-.178.2-.265l.547.735a.966.966,0,0,1-.2,1.35l-.821.611a.391.391,0,0,0,.233.7c.22,0,.256-.124,1.054-.688A1.748,1.748,0,0,0,297.89,89.694Z" transform="translate(-286.804 -74.198)" fill="#fff"/>
    </g>
  </g>
  <g id="Group_350" data-name="Group 350" transform="translate(11.259 20.842)">
    <g id="Group_349" data-name="Group 349">
      <path id="Path_1561" data-name="Path 1561" d="M233.808,402.536a.39.39,0,0,0-.546-.08l-3.769,2.8a.977.977,0,0,1-1.365-.2,3.7,3.7,0,0,0-1.971-1.575,6.583,6.583,0,0,1-3.543-2.9.39.39,0,0,0-.627.466,7.3,7.3,0,0,0,3.948,3.184,3,3,0,0,1,1.567,1.292,1.758,1.758,0,0,0,2.457.361l3.769-2.8A.39.39,0,0,0,233.808,402.536Z" transform="translate(-221.909 -400.423)" fill="#fff"/>
    </g>
  </g>
  <g id="Group_353" data-name="Group 353" transform="translate(3.933 4)">
    <g id="Group_352" data-name="Group 352" transform="translate(0)">
      <g id="Group_351" data-name="Group 351">
        <path id="Path_1562" data-name="Path 1562" d="M102.781,250.185l0,0Z" transform="translate(-101.653 -238.145)" fill="#fff"/>
        <path id="Path_1563" data-name="Path 1563" d="M102.754,250.15Z" transform="translate(-101.63 -238.115)" fill="#fff"/>
        <path id="Path_1564" data-name="Path 1564" d="M93.455,28.545l-5.128-6.9h0a1.215,1.215,0,0,1,.345-1.764,1.24,1.24,0,0,1,1.625.34l.556.747a.39.39,0,1,0,.627-.466l-.556-.747a2,2,0,0,0-3.544.631,2,2,0,0,0-3.466,1,1.979,1.979,0,0,0,.275,1.368,2,2,0,0,0-1.62,3.213l.611.821a2,2,0,0,0-1.612,3.213l.719.966h0v0h0l.012.016-.009-.012.011.015h0l5.175,6.961a.39.39,0,0,0,.627-.466L82.192,29.54a1.218,1.218,0,0,1,1.077-1.96,1.2,1.2,0,0,1,.853.484l3.553,4.778a.39.39,0,0,0,.627-.466l-5.109-6.871a1.236,1.236,0,0,1,.159-1.669,1.214,1.214,0,0,1,1.771.193l4.821,6.484a.39.39,0,0,0,.627-.466l-5.663-7.617a1.214,1.214,0,0,1,.276-1.719,1.241,1.241,0,0,1,1.7.3l5.949,8a.39.39,0,0,0,.627-.466ZM82.3,30.992Z" transform="translate(-81.16 -18.937)" fill="#fff"/>
      </g>
    </g>
  </g>
</svg>
